<?xml version="1.0" encoding="UTF-8"?>
<svg width="18px" height="18px" viewBox="0 0 18 18" version="1.1" xmlns="http://www.w3.org/2000/svg" xmlns:xlink="http://www.w3.org/1999/xlink">
    <title>FDC84091-8CC6-4387-9272-42BF2FEDC8DC</title>
    <g id="Iconography-+-Imagery" stroke="none" stroke-width="1" fill="none" fill-rule="evenodd" stroke-linecap="square">
        <g id="Iconography" transform="translate(-439.000000, -860.000000)" stroke="#000500">
            <g id="ic_16_assets_active" transform="translate(440.000000, 861.000000)">
                <polyline id="Path" stroke-linejoin="round" points="3.2 4.26666667 3.2 0 12.2666667 0 12.2666667 4.26666667"></polyline>
                <path d="M14.4,8.53333333 L14.4,4.26666667 L11.2,4.26666667 L4.26666667,4.26666667 L1.6,4.26666667 C0.716266667,4.26666667 0,3.5504 0,2.66666667 L0,13.8666667 C0,15.0448 0.9552,16 2.13333333,16 L14.4,16 L14.4,11.7333333" id="Path" stroke-linejoin="round"></path>
                <path d="M16,11.7333333 L12.2666667,11.7333333 C11.3829333,11.7333333 10.6666667,11.0170667 10.6666667,10.1333333 L10.6666667,10.1333333 C10.6666667,9.2496 11.3829333,8.53333333 12.2666667,8.53333333 L16,8.53333333 L16,11.7333333 Z" id="Path" stroke-linejoin="round"></path>
                <path d="M3.2,1.06666667 L1.6,1.06666667 C0.716266667,1.06666667 0,1.78293333 0,2.66666667 L0,2.66666667 C0,3.5504 0.716266667,4.26666667 1.6,4.26666667" id="Path"></path>
            </g>
        </g>
    </g>
</svg>